<?xml version="1.0" standalone="no"?>
<!DOCTYPE svg PUBLIC "-//W3C//DTD SVG 20010904//EN"
 "http://www.w3.org/TR/2001/REC-SVG-20010904/DTD/svg10.dtd">
<svg version="1.0" xmlns="http://www.w3.org/2000/svg"
 width="535.000000pt" height="499.000000pt" viewBox="0 0 535.000000 499.000000"
 preserveAspectRatio="xMidYMid meet">
<metadata>
Created by potrace 1.16, written by Peter Selinger 2001-2019
</metadata>
<g transform="translate(0.000000,499.000000) scale(0.100000,-0.100000)"
fill="#ffffff" stroke="none">
<path d="M3083 4286 c-114 -28 -238 -109 -321 -209 -39 -48 -89 -139 -102
-186 -5 -20 -21 -29 -85 -51 -414 -138 -688 -477 -735 -907 -45 -417 175 -831
551 -1037 101 -55 269 -113 269 -92 0 1 -20 33 -44 70 -48 73 -94 181 -123
286 -13 49 -17 102 -17 220 0 141 3 163 28 245 45 144 134 304 209 373 24 23
24 20 -11 -65 -61 -152 -56 -326 15 -467 28 -57 99 -156 112 -156 4 0 11 60
14 133 10 248 63 407 167 501 85 77 158 84 345 34 104 -28 136 -32 240 -32
106 0 129 4 195 28 177 66 321 206 407 393 14 30 23 56 21 58 -2 2 -55 9 -118
15 -243 24 -365 70 -454 174 -151 176 -235 242 -384 298 -46 18 -87 39 -92 47
-4 9 -14 51 -21 93 -11 65 -10 90 2 162 17 98 22 93 -68 72z m371 -587 c34 -9
126 -81 126 -99 0 -26 -112 -40 -153 -19 -30 16 -97 81 -97 95 0 6 15 16 33
22 43 13 46 14 91 1z"/>
<path d="M3311 2773 c125 -138 189 -301 189 -483 0 -114 -21 -195 -81 -319
-43 -87 -63 -116 -132 -186 -91 -91 -149 -124 -267 -151 -88 -20 -224 -16
-500 15 -223 25 -253 25 -387 5 -133 -19 -253 -63 -351 -126 -78 -52 -196
-147 -189 -155 2 -2 33 3 68 12 35 8 86 15 113 15 54 0 176 -20 176 -29 0 -3
-38 -23 -84 -44 -116 -53 -199 -110 -282 -192 -153 -152 -237 -324 -270 -552
-15 -105 -15 -121 0 -228 23 -160 31 -175 55 -107 45 122 168 241 325 312 217
98 494 140 933 140 396 0 589 25 762 99 301 128 598 454 704 774 55 162 69
316 43 462 -73 411 -395 724 -796 770 l-65 7 36 -39z"/>
</g>
</svg>
